<?xml version="1.0" encoding="utf-8"?>
<!-- Generator: Adobe Illustrator 28.2.0, SVG Export Plug-In . SVG Version: 6.00 Build 0)  -->
<svg version="1.1" id="Layer_1" xmlns="http://www.w3.org/2000/svg" xmlns:xlink="http://www.w3.org/1999/xlink" x="0px" y="0px"
	 viewBox="0 0 1039.5 1447.6" style="enable-background:new 0 0 1039.5 1447.6;" xml:space="preserve">
<style type="text/css">
	.st0{fill:#FFFFFF;}
	.st1{fill:#00C27A;}
</style>
<rect x="267.3" y="519.6" class="st0" width="524.4" height="535.6"/>
<path class="st1" d="M973.5,1348.3c0,2.7,0,5.3,0,8c-2.5,11.7-4.5,23.5-11.3,33.7c-0.6,0.9-0.9,2.2-1.8,2.8
	c-13.5,10.7-24.4,25.7-43.6,27.3c-1.6,0.1-3.1,1.3-4.6,2c-136.2,0-272.4,0-408.6,0c-131.5,0-263,0-394.5-0.1
	c-4.2-3.9-10-1.8-14.7-4.2c-5.5-2.8-11.5-4.7-15.9-9.3c-5.5-5.7-11.3-11.2-16.8-16.8c-7.1-7.3-9.7-16.5-11.8-26.2
	c-3.8-17.8-1.8-35.7-1.8-53.5c-0.2-286.7-0.1-573.5-0.2-860.2c0-2.1,0-4.2-0.1-6.2c0-34.1,0-68.2,0.1-102.3c0-10.7,2.2-21.1,6-31.1
	c0.5-1.2,0.5-2.6,0.7-3.8c3-7.6,8.3-13.8,12.8-20.5c3.5-5.1,9.5-7.3,13.8-11.6c14.7-14.9,28.9-30.5,44.6-44.3
	c21.3-18.7,39.9-40.2,61.1-58.7c17.2-15.1,32.7-31.8,49.2-47.5c3-2.8,7.8-3.4,9.2-8c1.2-0.3,2-1,2.3-2.2l0,0
	c2.3-0.7,3.6-2.6,5.2-4.1c12.4-12.3,24.9-24.5,37-37.1c3.1-3.3,8.4-3.8,10-8.6c7.8-3.6,12.1-11.5,19.2-16c2-1.3,3.2-3.7,5.7-4.5
	c1.2-0.2,2-1,2.3-2.2l0,0c14.7-7.6,30.1-11.6,46.9-11.5c91.2,0.3,182.5,0.4,273.7-0.1c17.9-0.1,34.1,4.1,49.4,12.9
	c0.7,0.4,1.4,0.6,2,1l0,0c0.3,1.2,1.1,2,2.3,2.2c4,3.6,7.6,7.5,11.8,11c20.2,16.8,38,36,57,54.1c12.8,12.2,25.4,24.8,38.8,36.3
	c23.5,20.3,44.2,43.3,66.5,64.7c5.8,5.6,13.1,9.6,18.3,15.8c0.9,1.1,2.2,1.3,3.6,1.1l0.1,0.2c1.1,5.2,9.7,13.3,15,14
	c0,0,0.1-0.1,0-0.1c0.2,2.3,2.1,3.5,3.5,5c5.1,5.5,11.1,10.2,15,16.9c2.1,3.5,6.1,5.4,9.2,8c9.1,7.8,17.5,15.9,23.2,26.5
	c0.7,1.2,2.2,2,3.3,3c-0.2,4.8,2.1,8.9,3.6,13.2c0.8,2.4,1,4.7,1.2,7c4.8,55,1.9,110.1,2,165.2c0.3,283.9,0.2,567.8,0.2,851.7
	C973.4,1343.4,973.5,1345.9,973.5,1348.3z M569.7,262.9c2.7-1.2,2.2-3.7,2.2-5.9c0-35.4,0-70.8,0-106.3c0-2.2,0.4-4.6-2.2-5.9
	c-1.3-2.6-3.7-2.2-5.9-2.2c-35.4,0-70.9,0-106.3,0c-2.2,0-4.6-0.4-5.9,2.2c-2.6,1.3-2.2,3.7-2.2,5.9c0,35.4,0,70.9,0,106.3
	c0,2.2-0.5,4.7,2.2,5.9c1.2,2.7,3.7,2.2,5.9,2.2c35.4,0,70.9,0,106.3,0C566,265.1,568.5,265.6,569.7,262.9z M768.1,704
	c15.8-15.9,21.9-34.1,15.2-56.6c-7.6-25.5-26.2-35.6-48.7-37.5c-16.1-1.4-29.1,5.9-40.3,17.1c-78,78.1-156,156.2-234.1,234.3
	c-6.1,6.1-4.5,5.6-10.2-0.1c-26.6-26.6-53.3-53.3-79.7-80.1c-13.5-13.7-30-18-48.3-15.1c-31.9,5.1-55.9,42.9-37.2,77.1
	c2.6,4.8,5.7,9.3,9.6,13.2c42.6,42.6,85.2,85.2,127.8,127.8c0.5,2.2,2.3,3.3,4,4.5c4.1,2.7,8.4,4.4,13.2,5.6
	c9.6,2.4,19.4,2.6,28.5,0.6c11.5-2.5,22.2-8,30.3-17.5c5.5-6.4,11.9-12.1,17.9-18.1c50.2-50.2,100.4-100.4,150.6-150.7"/>
</svg>
